<?xml version="1.0" encoding="UTF-8" standalone="no"?>
<!-- Created with Inkscape (http://www.inkscape.org/) -->

<svg
   xmlns:dc="http://purl.org/dc/elements/1.1/"
   xmlns:cc="http://creativecommons.org/ns#"
   xmlns:rdf="http://www.w3.org/1999/02/22-rdf-syntax-ns#"
   xmlns:svg="http://www.w3.org/2000/svg"
   xmlns="http://www.w3.org/2000/svg"
   xmlns:sodipodi="http://sodipodi.sourceforge.net/DTD/sodipodi-0.dtd"
   xmlns:inkscape="http://www.inkscape.org/namespaces/inkscape"
   width="18"
   height="28"
   id="svg2"
   version="1.1"
   inkscape:version="0.48.4 r9939"
   sodipodi:docname="Logo.svg"
   inkscape:export-filename="/home/jonny/Programmierung/PinytoConnect/res/drawable-hdpi/ic_launcher.png"
   inkscape:export-xdpi="9.818182"
   inkscape:export-ydpi="9.818182">
  <defs
     id="defs4" />
  <sodipodi:namedview
     id="base"
     pagecolor="#ffffff"
     bordercolor="#666666"
     borderopacity="1.0"
     inkscape:pageopacity="0.0"
     inkscape:pageshadow="2"
     inkscape:zoom="24.466207"
     inkscape:cx="13.990727"
     inkscape:cy="9.2801848"
     inkscape:document-units="px"
     inkscape:current-layer="layer1"
     showgrid="false"
     inkscape:window-width="1871"
     inkscape:window-height="1056"
     inkscape:window-x="49"
     inkscape:window-y="24"
     inkscape:window-maximized="1"
     fit-margin-top="0"
     fit-margin-left="0"
     fit-margin-right="0"
     fit-margin-bottom="0" />
  <metadata
     id="metadata7">
    <rdf:RDF>
      <cc:Work
         rdf:about="">
        <dc:format>image/svg+xml</dc:format>
        <dc:type
           rdf:resource="http://purl.org/dc/dcmitype/StillImage" />
        <dc:title></dc:title>
      </cc:Work>
    </rdf:RDF>
  </metadata>
  <g
     inkscape:label="Ebene 1"
     inkscape:groupmode="layer"
     id="layer1"
     transform="translate(-196.00616,-719.88979)">
    <g
       id="g3012"
       transform="matrix(0.0460311,0,0,0.0460311,180.74727,714.72513)">
      <path
         inkscape:connector-curvature="0"
         id="path3816"
         d="m 385.94068,681.9887 c 20.85561,12.16578 57.35292,26.06952 90.3743,30.41443 33.02137,4.34492 78.20852,-100.8021 78.20852,-100.8021 l 13.90374,-180.7486 -31.28341,-132.08551 -18.24866,-0.86898 -44.31815,42.5802 -117.3128,76.47056 z"
         style="fill:#ffffff;stroke:none" />
      <path
         style="fill:#cccccc"
         d="m 499.96473,717.28433 c -16.46541,-1.46443 -34.63226,-4.67394 -47.5532,-8.40117 -12.23481,-3.52928 -15.53269,-5.53786 -9.09267,-5.53786 l 4.21299,0 -0.43879,-28.46648 -0.4388,-28.46649 8.94399,-0.63969 c 6.77162,-0.48433 9.03655,-1.12763 9.32509,-2.64859 0.2968,-1.56443 -4.08805,-3.34933 -19.81881,-8.06752 -11.10998,-3.33226 -27.52084,-8.97432 -36.4686,-12.5379 -17.01773,-6.77757 -23.38345,-7.51342 -17.94432,-2.07429 1.49528,1.49527 7.21413,5.43541 12.70857,8.75584 l 9.98987,6.03715 0.97862,14.54325 c 3.02316,44.9268 3.01824,44.60997 0.6915,44.60947 -3.81799,-8.6e-4 -21.23493,-8.61904 -30.79234,-15.23657 -17.82399,-12.34125 -31.95186,-29.63796 -36.14787,-44.25568 -1.05567,-3.67761 -2.65088,-20.53759 -3.75257,-39.66117 -1.05397,-18.29532 -2.87067,-49.09669 -4.03711,-68.44751 -1.16642,-19.35081 -2.28495,-40.6527 -2.48558,-47.33753 -0.20064,-6.68482 -1.29747,-26.5474 -2.43738,-44.13904 -2.84047,-43.8351 -2.8128,-48.53588 0.33379,-56.69657 4.79648,-12.43963 17.08442,-25.44176 36.31301,-38.42353 21.97632,-14.83684 64.48851,-28.14571 105.50551,-33.02957 9.74135,-1.15988 18.24495,-2.58101 18.89686,-3.15806 2.76822,-2.45031 -12.63023,-17.74152 -17.86594,-17.74152 -1.09438,0 -6.48141,2.59077 -11.97119,5.75727 -11.41773,6.58575 -15.76361,7.19803 -18.74914,2.64154 -1.86448,-2.84556 -1.86704,-4.04684 -0.0296,-13.85318 2.5661,-13.69445 2.53373,-14.6779 -0.51498,-15.64552 -1.38985,-0.44111 -5.89266,-3.04953 -10.00622,-5.79648 -5.37198,-3.58726 -8.53502,-6.90011 -11.22648,-11.75825 -3.50758,-6.33122 -3.74726,-7.66564 -3.74726,-20.86404 0,-13.34396 0.2247,-14.55662 4.18916,-22.6096 3.92132,-7.96533 6.30441,-10.53884 21.17931,-22.87164 0.58301,-0.48337 -0.0974,-4.83495 -1.51207,-9.67017 -2.40023,-8.204 -3.20891,-13.42884 -2.88198,-18.6204 0.21903,-3.47805 4.61339,-3.93381 16.04926,-1.66456 l 10.73818,2.13079 14.50085,-14.64036 c 12.02602,-12.14173 16.18112,-15.46415 24.34606,-19.46712 16.90297,-8.28691 29.04438,-6.45604 51.75979,7.80513 9.20745,5.78062 11.72565,6.84179 13.5428,5.70696 7.51651,-4.69411 19.52833,-10.34263 21.99408,-10.34263 3.68788,0 7.13753,3.77957 7.09825,7.7771 -0.0167,1.70375 -1.07106,7.82676 -2.34291,13.60667 -1.27185,5.77992 -1.97781,10.99662 -1.5688,11.59268 0.40903,0.59606 4.3422,3.24939 8.74043,5.89629 5.74137,3.45523 8.98889,6.50029 11.51453,10.79669 3.26157,5.5483 3.51778,7.00915 3.51778,20.05748 0,12.72144 -0.34335,14.81069 -3.57433,21.74966 -2.53197,5.43776 -6.23035,10.16383 -12.68207,16.20614 l -9.10775,8.52977 2.2489,10.40854 c 3.69991,17.12422 1.67267,19.42022 -14.70746,16.65736 -7.54518,-1.27266 -9.43498,-1.23853 -10.79441,0.19496 -13.00702,13.71567 -22.38573,28.47961 -22.38817,35.2434 -8.3e-4,2.34379 0.88529,2.90195 5.43642,3.42427 45.97998,5.27692 58.05404,7.55529 82.46166,15.5604 45.36111,14.87739 76.74818,41.02031 79.26795,66.02387 0.38056,3.77644 0.0162,21.25943 -0.80988,38.85109 -0.826,17.59165 -1.76151,40.04498 -2.0789,49.89631 -2.30011,71.39233 -5.92811,150.39221 -7.13257,155.31142 -6.66153,27.20726 -35.75526,52.58733 -80.67189,70.3746 -35.20813,13.94264 -85.63585,20.45587 -128.71322,16.62459 z M 444.73517,590.25594 c 0,-33.29506 -0.52179,-31.482 9.06039,-31.482 4.09004,0 5.01293,-0.45216 5.01293,-2.45597 0,-2.72497 -2.15339,-3.55894 -26.86725,-10.4054 -8.09216,-2.24174 -19.43352,-5.77831 -25.20305,-7.85899 -10.13378,-3.65461 -16.60716,-4.32305 -16.16319,-1.66902 0.1177,0.70367 4.43566,3.8911 9.59544,7.08317 l 9.38144,5.80377 0.8586,10.18864 c 0.47225,5.60376 1.25351,19.27787 1.7362,30.38691 l 0.87756,20.19828 6.28901,3.18688 c 3.45896,1.7528 9.58639,3.9862 13.61653,4.96315 13.01808,3.15569 11.80539,6.02572 11.80539,-27.93942 z m -1.2794,-88.39655 0,-31.3267 5.75727,-1.4497 c 4.09347,-1.03075 5.75728,-2.10042 5.75728,-3.70138 0,-2.96974 -2.44349,-3.8315 -32.54071,-11.47636 -28.90767,-7.34269 -31.72046,-7.14357 -22.24863,1.575 l 5.8884,5.42015 0.87981,19.19089 c 0.4839,10.55499 1.26746,24.6603 1.74124,31.34512 l 0.86145,12.15423 5.11757,2.52661 c 5.97632,2.95059 20.2025,6.8889 25.268,6.99508 l 3.51832,0.0738 0,-31.3267 z m 72.31497,-128.55001 c -0.75891,-1.22793 -8.825,-3.86487 -11.86366,-3.87842 -2.5798,-0.0115 -1.83831,2.04533 1.2794,3.54895 3.62236,1.74698 11.61409,1.99576 10.58426,0.32947 z m 1.21644,-19.18378 c 1.02895,-1.66488 -5.82832,-5.0579 -11.06213,-5.47362 -5.21906,-0.41455 -5.85514,2.6159 -1.05842,5.04265 3.78267,1.91371 11.04458,2.17192 12.12055,0.43097 z m -1.92194,-13.4441 c 1.25008,-1.50626 0.96632,-2.92959 -1.44258,-7.236 -1.64933,-2.9485 -3.57449,-5.40294 -4.27816,-5.4543 -1.60139,-0.11693 -3.79908,9.87547 -2.76479,12.57079 0.96728,2.52071 6.42888,2.59763 8.48553,0.1195 z m 18.97042,-23.06635 c -0.29165,-6.62663 -0.918,-9.03152 -2.63267,-10.10832 -3.0338,-1.90518 -9.11529,1.4743 -9.67748,5.37777 -0.49911,3.46556 9.72319,16.3956 11.53205,14.58672 0.63845,-0.63844 0.98859,-5.07371 0.7781,-9.85617 z m -5.25679,-40.23896 c 8.5303,-3.8728 16.57016,-12.12939 19.53985,-20.06661 4.8965,-13.08707 3.14262,-21.90034 -6.35722,-31.94502 -6.93371,-7.33139 -7.06376,-8.58289 -1.54888,-14.90527 2.83725,-3.25269 5.59733,-2.77917 11.9274,2.0463 10.75364,8.19758 19.3854,10.97092 28.70451,9.22265 5.67485,-1.06461 15.07323,-9.37769 18.82244,-16.64887 5.03846,-9.77156 2.77511,-26.40981 -4.0926,-30.08531 -8.43162,-4.51246 -25.65956,4.83087 -38.0965,20.6611 -3.21815,4.09619 -6.78405,7.44762 -7.92424,7.44762 -2.74414,0 -11.22621,-5.82415 -12.82048,-8.8031 -1.00918,-1.88565 -0.008,-4.13796 5.00844,-11.25684 7.0431,-9.99675 9.68838,-18.27299 8.53353,-26.69861 -1.06604,-7.77763 -5.36518,-15.7737 -9.28139,-17.26264 -6.20807,-2.36029 -16.33858,-1.44732 -23.02278,2.07485 -13.03223,6.86719 -19.04156,15.59784 -20.52859,29.82501 -1.05575,10.10089 1.50764,16.95109 9.14989,24.45138 3.16291,3.10416 5.75073,6.41095 5.75073,7.34844 0,3.15568 -5.53582,9.27725 -8.38953,9.27725 -1.53491,0 -5.69173,-2.30979 -9.23738,-5.13287 -7.87675,-6.27155 -15.39088,-9.08468 -24.32471,-9.1066 -17.36411,-0.0427 -30.98341,18.76943 -27.00809,37.30568 1.88716,8.79954 5.97516,11.91039 14.7105,11.19421 11.1052,-0.91046 21.3782,-7.63829 33.26651,-21.78633 3.39984,-4.04608 6.96806,-7.35651 7.92938,-7.35651 2.48718,0 13.05332,8.91743 13.05332,11.01653 0,0.96389 -2.57035,5.5069 -5.71187,10.09559 -3.14154,4.58868 -6.37011,10.78333 -7.17462,13.7659 -2.90886,10.78409 1.20656,24.83633 7.81302,26.67787 6.1429,1.71234 15.92186,1.09016 21.30936,-1.3558 z"
         id="path3034"
         inkscape:connector-curvature="0" />
      <path
         style="fill:#afafaf"
         d="m 502.94754,716.6566 c -24.86024,-2.50601 -55.22604,-9.02574 -48.75986,-10.46903 2.29783,-0.5129 2.39158,-1.92367 1.91909,-28.87784 l -0.49677,-28.33861 12.05235,-0.6397 c 12.44645,-0.66061 15.63828,-2.28042 10.21394,-5.18344 -1.56055,-0.83519 -12.39042,-3.99598 -24.06636,-7.02398 -25.58955,-6.63633 -35.73936,-10.18377 -55.42315,-19.37084 -15.48101,-7.22551 -19.54033,-7.97079 -19.54033,-3.5875 0,1.80458 3.80149,5.06189 13.11377,11.23656 l 13.11378,8.69529 0.0764,7.93681 c 0.042,4.36524 0.56229,16.57271 1.15614,27.12769 0.59386,10.55499 0.69225,19.60506 0.21865,20.11126 -1.21092,1.29431 -12.65388,-4.22237 -22.18947,-10.69758 -17.61198,-11.95957 -31.94022,-30.81193 -35.3533,-46.51606 -1.35109,-6.21652 -3.72309,-38.6498 -4.81876,-65.88873 -0.2972,-7.38849 -1.44133,-27.82679 -2.54251,-45.41844 -1.10118,-17.59164 -2.16864,-37.74208 -2.37213,-44.77874 -0.49203,-17.01434 -4.55639,-78.95093 -5.25506,-80.08139 -1.1141,-1.80266 2.12467,-14.79064 5.32538,-21.35555 3.78908,-7.77173 16.12926,-20.63349 27.71521,-28.88665 27.42135,-19.5334 70.42504,-32.59075 126.63741,-38.45132 l 7.3565,-0.76697 0,9.05104 c 0,9.90379 -0.61088,11.64454 -6.1778,17.60396 -5.04883,5.40478 -5.76012,9.87745 -2.61926,16.46995 4.41967,9.27667 17.19334,13.69632 29.24297,10.11796 3.78717,-1.12468 9.67839,-2.04485 13.0916,-2.04485 6.89772,0 13.48342,-2.28873 16.27654,-5.65659 2.79827,-3.37406 -0.23157,-4.51692 -9.75553,-3.6798 -6.94261,0.61023 -8.0737,0.41331 -8.0737,-1.40561 0,-1.16339 1.40922,-2.65105 3.13157,-3.30589 5.21204,-1.98161 7.51276,-6.83137 6.79323,-14.31964 -0.34983,-3.64085 0.14269,-9.48506 1.10344,-13.09295 2.36657,-8.88732 2.23656,-15.4081 -0.35003,-17.55479 -1.33842,-1.11076 -5.21633,-1.73756 -10.555,-1.706 -6.68295,0.0396 -9.90368,0.80206 -15.47592,3.66418 -3.87016,1.98785 -7.98648,4.44927 -9.14736,5.46978 -1.89396,1.66493 -3.07636,0.89455 -11.51454,-7.50236 -5.17211,-5.14681 -11.49989,-10.4624 -14.06173,-11.81242 l -4.65791,-2.45458 -10.54234,5.97291 c -9.34663,5.29547 -14.04574,7.11206 -14.04574,5.42985 0,-0.29869 1.20678,-5.78441 2.68175,-12.19049 1.47497,-6.40609 2.38158,-12.4297 2.01467,-13.3858 -0.36689,-0.95612 -4.76569,-3.62756 -9.77511,-5.93655 -5.00944,-2.309 -10.7617,-6.08158 -12.78282,-8.38352 -8.9719,-10.21841 -8.01739,-36.80655 1.77041,-49.31601 1.46161,-1.86804 6.19324,-6.32751 10.51474,-9.90993 4.32149,-3.58242 8.19843,-7.40259 8.61543,-8.48925 0.41699,-1.08667 -0.67194,-6.91076 -2.41985,-12.94242 -1.7479,-6.03166 -3.17801,-11.24551 -3.17801,-11.58634 0,-0.34084 6.03404,-0.20842 13.40898,0.29426 l 13.40899,0.91396 4.14631,-4.94887 c 15.34094,-18.31032 32.36444,-30.98361 45.59674,-33.94487 6.26939,-1.40303 8.23537,-1.26733 18.01317,1.2434 6.03664,1.55007 13.76354,4.2545 17.1709,6.00985 3.40734,1.75536 7.0428,3.19155 8.07878,3.19155 1.03597,0 6.91741,-2.61512 13.06986,-5.81138 7.58292,-3.93941 11.95223,-5.51747 13.56411,-4.89893 1.95276,0.74935 1.3488,1.38795 -3.37863,3.57245 -7.67192,3.54511 -20.14822,12.49343 -20.20897,14.49437 -0.13231,4.35881 15.96158,-1.69381 23.94007,-9.00341 l 2.87864,-2.6373 -0.019,3.10165 c -0.0102,1.7059 -0.88658,6.78253 -1.94705,11.28138 -1.06048,4.49885 -1.6316,9.10467 -1.26917,10.23514 0.36244,1.13048 3.68546,4.04634 7.38448,6.47971 3.69902,2.43335 8.32984,5.87172 10.29073,7.64081 8.38822,7.56776 9.57946,28.84294 2.46608,44.04386 -2.75263,5.88227 -6.01729,10.04483 -12.24796,15.61666 -9.59544,8.58083 -9.70309,8.976 -6.41354,23.54259 2.90311,12.85534 2.1457,13.52513 -12.84365,11.35789 l -11.17583,-1.61586 -4.44771,5.06755 c -12.84655,14.63684 -22.27297,31.12796 -20.47345,35.81744 0.35534,0.92601 4.64834,1.90318 10.61348,2.41583 53.71784,4.61664 96.88256,17.32468 124.33853,36.60625 15.04757,10.56752 23.94744,19.6898 28.9338,29.65693 4.39696,8.78903 4.51356,9.40981 4.48591,23.88453 -0.0156,8.17353 -0.60864,26.66336 -1.31786,41.08852 -0.70921,14.42515 -1.52954,34.86344 -1.82294,45.41844 -0.29339,10.55498 -1.1553,33.58405 -1.91536,51.1757 -0.76007,17.59165 -1.91053,45.83327 -2.5566,62.75915 -1.3514,35.40394 -2.73009,41.24216 -13.20623,55.92314 -21.03349,29.47583 -70.43282,53.63527 -126.28275,61.76034 -12.93797,1.88224 -57.90321,3.4511 -68.44751,2.38819 z m -49.11509,-124.22948 -0.49818,-29.67674 3.05696,-0.69703 c 1.68133,-0.38336 6.21807,-0.84625 10.08163,-1.02866 5.34581,-0.25241 7.12061,-0.83666 7.42607,-2.44467 0.46957,-2.47196 -4.62808,-4.33205 -25.96527,-9.47445 -19.31735,-4.65561 -31.72704,-8.61834 -50.80873,-16.22453 -13.425,-5.35136 -16.60376,-6.20242 -18.20446,-4.87396 -3.06765,2.54593 -0.67471,5.23257 10.67232,11.98226 6.83607,4.0664 10.56227,7.11095 10.9594,8.95457 0.33094,1.53635 1.16018,14.88059 1.84275,29.65383 l 1.24103,26.86047 3.59766,2.89634 c 7.05336,5.67841 35.20451,14.65108 43.8985,13.99185 l 3.19849,-0.24253 -0.49817,-29.67675 z m -0.8031,-58.28149 c 0.29565,-0.87958 0.99724,-15.1143 1.5591,-31.6327 l 1.02155,-30.03347 5.75728,-0.97669 c 5.69958,-0.96692 9.93331,-4.37929 7.92506,-6.38755 -0.57216,-0.57216 -13.67209,-4.15917 -29.11099,-7.97116 -15.43888,-3.81197 -34.64433,-9.27599 -42.67877,-12.14225 -15.97687,-5.69971 -18.25902,-6.08314 -20.45523,-3.43689 -1.69159,2.03824 1.85788,5.43432 11.75294,11.24506 6.80033,3.9934 6.274,1.50962 8.89889,41.99427 l 1.61755,24.94811 6.39696,3.48787 c 15.31084,8.34802 45.81234,15.37806 47.31566,10.9054 z m 89.57936,-158.56289 c 5.50652,-1.37662 9.95378,-4.54408 8.8615,-6.31141 -0.37048,-0.59944 -5.68236,-0.75344 -11.80421,-0.34224 -9.87479,0.66332 -12.79062,0.29515 -25.84363,-3.26319 -8.09215,-2.20597 -16.26041,-5.13224 -18.15166,-6.50282 -3.4218,-2.47975 -3.44275,-2.47908 -4.27356,0.13855 -2.02945,6.39423 3.56804,13.12239 14.22526,17.09873 5.50408,2.05363 27.44096,1.56871 36.9863,-0.81762 z m -7.03666,-89.27048 c 13.80439,-7.24402 21.50423,-17.69518 22.69264,-30.8013 0.65685,-7.24386 -1.20344,-15.3058 -3.53182,-15.3058 -0.54946,0 -1.55308,-1.58324 -2.23026,-3.51832 -0.6772,-1.93508 -3.35996,-6.06235 -5.96171,-9.1717 l -4.73047,-5.65338 3.93749,-3.93748 c 3.88145,-3.88146 3.98725,-3.90601 7.43579,-1.72582 11.62726,7.35084 23.29758,9.206 32.44845,5.15815 3.14791,-1.39248 7.78527,-4.34206 10.30524,-6.55462 2.51998,-2.21257 4.93757,-4.02285 5.37243,-4.02285 3.59577,0 -4.80323,11.65131 -10.53604,14.61587 -1.88103,0.97272 -6.20523,2.18623 -9.60931,2.69671 -4.16873,0.62514 -5.62507,1.28567 -4.46102,2.02332 5.61363,3.55735 20.18788,-2.18773 26.83247,-10.57721 4.97839,-6.28573 7.39035,-12.77218 7.46413,-20.07316 0.0446,-4.41575 -0.44428,-5.68806 -2.38027,-6.19433 -1.60509,-0.41974 -2.91815,-2.55029 -3.84828,-6.24418 -0.77653,-3.08388 -3.19415,-7.63694 -5.37247,-10.11793 -8.07663,-9.19876 -19.89891,-5.14754 -38.05494,13.04053 -11.7819,11.80268 -12.01849,11.95939 -15.053,9.97111 l -3.08295,-2.02004 4.27844,-4.40537 c 7.17665,-7.38955 11.46406,-16.60996 11.61867,-24.98681 0.10184,-5.52034 -0.4605,-8.0042 -2.26473,-10.00241 -1.32017,-1.46209 -4.19964,-6.26766 -6.39884,-10.67903 -4.6901,-9.40786 -8.3645,-11.73069 -18.70782,-11.82642 -8.9319,-0.0827 -17.6366,4.03069 -25.81146,12.19708 -6.92545,6.91825 -10.01154,15.25113 -10.01154,27.03257 0,9.48475 2.2452,14.8287 8.83533,21.02959 2.87858,2.70856 5.23473,5.66457 5.2359,6.56892 0.003,2.46954 -3.9118,7.95119 -5.67869,7.95119 -0.85158,0 -4.8811,-2.58797 -8.9545,-5.75104 -15.80842,-12.27548 -31.18613,-12.59547 -43.41016,-0.90331 -9.44317,9.03231 -13.07567,21.66908 -9.71117,33.78324 4.10994,14.79809 22.85662,13.26602 43.6955,-3.57101 4.78962,-3.86984 8.7084,-6.61041 8.7084,-6.09015 0,0.52025 -1.53827,3.16567 -3.4184,5.87868 -4.62508,6.67401 -14.60376,14.41425 -21.91538,16.99931 -11.24138,3.97444 -11.59056,4.25514 -5.37164,4.31833 10.47075,0.10645 21.63475,-7.18158 34.61114,-22.59453 7.00241,-8.31723 8.79315,-9.2748 11.42169,-6.10761 1.28181,1.54449 0.72941,3.03016 -3.03181,8.15397 -2.52957,3.44596 -5.74253,8.78515 -7.13991,11.86488 -5.61306,12.37071 -1.59704,31.46501 6.99855,33.27492 12.49711,2.63141 21.23545,0.7026 33.14137,-7.31533 7.61986,-5.13151 9.38329,-3.5854 3.19397,2.80035 -5.30798,5.47645 -15.6809,10.74346 -21.15833,10.74346 -5.20043,0 -6.86534,2.23813 -2.08493,2.80276 4.70151,0.55533 11.74267,-0.68016 15.69425,-2.7538 z m -37.10239,-64.65829 c 0,-1.17278 0.6189,-1.92602 1.37535,-1.67387 0.75644,0.25215 1.37535,1.00539 1.37535,1.67387 0,0.66849 -0.61891,1.42173 -1.37535,1.67387 -0.75645,0.25215 -1.37535,-0.50109 -1.37535,-1.67387 z m 42.26065,-4.75942 c 0.0553,-2.22729 3.12148,-6.11541 4.82257,-6.11541 3.017,0 2.51863,2.29529 -1.07532,4.95241 -2.44518,1.8078 -3.77352,2.22006 -3.74725,1.163 z m -1.32008,-25.14965 c 0,-0.61751 0.86359,-1.83946 1.91908,-2.71544 2.08312,-1.72884 2.34353,-1.3153 1.14252,1.81445 -0.82208,2.1423 -3.0616,2.80137 -3.0616,0.90099 z m -79.32235,-36.61935 c -12.87464,-3.15516 -11.58459,-4.21785 2.06676,-1.70249 6.12349,1.1283 8.91127,1.13504 11.3422,0.0274 2.8196,-1.28471 3.22315,-1.16878 3.22315,0.92591 0,1.84894 -2.9524,4.507 -4.26267,3.83769 -0.11836,-0.0604 -5.68461,-1.45031 -12.36944,-3.08855 z m 48.34222,-32.43916 c 7.8549,-6.81282 21.93079,-8.60118 31.93967,-4.05799 5.66859,2.57307 7.56761,4.60359 2.55879,2.73596 -9.47439,-3.53269 -19.87457,-2.70519 -32.94436,2.62126 l -5.75727,2.34632 4.20317,-3.64555 z"
         id="path3032"
         inkscape:connector-curvature="0" />
      <path
         style="fill:#4d4d4d;fill-opacity:1"
         d="m 502.15629,714.82231 c -6.06452,-0.63824 -14.41256,-1.97857 -18.55119,-2.97852 l -7.52481,-1.81807 6.07711,-0.14173 6.07712,-0.14172 0.0734,-4.79772 c 0.0404,-2.63874 0.27777,-7.10063 0.5275,-9.91529 0.62896,-7.08888 2.14126,-25.59195 2.70764,-33.12806 0.25879,-3.44345 0.71371,-6.50398 1.01091,-6.8012 0.29722,-0.2972 6.17543,-1.0735 13.06271,-1.7251 6.88729,-0.6516 13.61616,-1.5319 14.95306,-1.95623 5.48405,-1.74056 -3.7286,-4.82941 -25.14772,-8.43159 -52.35082,-8.80414 -81.32224,-17.88167 -109.63902,-34.35292 -14.58402,-8.4832 -33.54684,-28.15431 -30.28498,-31.41616 0.46631,-0.46633 4.28988,2.267 8.49681,6.07405 8.44616,7.64333 28.14144,19.83403 44.91731,27.80227 19.25602,9.14626 41.39809,14.23282 70.41818,16.17675 l 13.38204,0.89641 0.15589,-4.3112 c 0.0857,-2.37115 0.5752,-11.21991 1.08769,-19.6639 0.5125,-8.44399 1.06222,-19.20357 1.22159,-23.91016 0.15938,-4.7066 0.96667,-9.37305 1.79399,-10.3699 0.85552,-1.03084 6.46853,-2.52403 13.01569,-3.46247 6.33131,-0.90749 11.51149,-2.09461 11.51149,-2.63805 0,-1.82102 -10.77229,-4.96266 -21.74968,-6.34307 -20.28079,-2.55032 -61.70222,-11.58937 -78.62127,-17.15685 -36.30126,-11.94551 -57.86273,-25.0788 -68.57205,-41.76783 -5.75647,-8.97067 -4.14471,-10.24607 3.90899,-3.09325 13.4443,11.94045 41.66501,27.61416 61.90976,34.38456 18.40033,6.15356 49.5977,11.02708 70.58877,11.02708 l 7.96069,0 0.94109,-10.55499 c 0.9745,-10.92986 1.3623,-17.06919 2.43805,-38.59793 0.40413,-8.08747 1.20823,-13.04503 2.21696,-13.66847 0.87055,-0.53804 5.9287,-1.34128 11.2403,-1.78497 11.79586,-0.98535 29.1008,-3.11434 33.00639,-4.0607 1.95746,-0.47432 2.87863,-1.64722 2.87863,-3.66525 0,-3.12133 0.5135,-2.97805 -17.2718,-4.81958 l -3.83818,-0.39741 3.83584,-1.61527 c 6.97952,-2.93907 10.75223,-7.81283 6.07946,-7.85372 -1.39809,-0.0128 -1.70334,-0.3726 -0.81279,-0.95954 0.78439,-0.51698 1.83334,-4.25039 2.33101,-8.29647 0.7787,-6.331 0.61258,-7.3565 -1.19168,-7.3565 -1.15308,0 -3.99524,-1.44824 -6.31592,-3.2183 -3.87546,-2.95596 -4.36229,-3.04613 -5.97233,-1.10617 -1.48663,1.79128 -3.51705,1.99625 -13.36599,1.34931 l -11.6131,-0.76285 0.97196,7.94612 c 0.91097,7.44736 0.27862,19.95025 -1.08131,21.37974 -1.4842,1.56014 -21.79952,-0.045 -39.23702,-3.10019 -35.77597,-6.2682 -61.00567,-14.03001 -84.32932,-25.94355 -23.93573,-12.22616 -36.7529,-28.05207 -37.80547,-46.68001 -0.64066,-11.33804 2.56363,-18.09452 13.91152,-29.33344 19.194,-19.00967 45.25198,-31.90562 82.47887,-40.81832 17.06884,-4.08655 47.96067,-8.91339 57.11412,-8.92407 5.137,-0.007 6.03837,0.39124 6.67893,2.94349 0.40729,1.62272 0.26034,5.98791 -0.32652,9.70041 -0.84107,5.32054 -2.05225,7.70693 -5.71938,11.2688 -8.96525,8.70794 -5.25637,19.70469 8.79459,26.07569 8.67819,3.93487 13.28784,4.63927 15.5508,2.37631 0.74957,-0.74958 6.54239,-1.84872 12.87294,-2.44256 13.14935,-1.23346 22.09895,-4.88415 22.09895,-9.01451 0,-2.26434 -0.88139,-2.53278 -8.31605,-2.53278 -4.57384,0 -8.31606,-0.32503 -8.31606,-0.7223 0,-0.39727 1.72719,-2.17562 3.83819,-3.9519 3.66324,-3.08241 3.83817,-3.68648 3.83817,-13.25342 0,-8.34524 1.95504,-22.24829 3.39664,-24.15481 0.20883,-0.27619 1.11327,0.10453 2.00986,0.84602 0.89659,0.74149 8.53888,2.01846 16.98288,2.83768 55.53869,5.38831 95.60676,18.57872 124.67252,41.04224 12.58061,9.72292 17.77862,15.6715 22.43542,25.67498 3.74687,8.0488 4.03772,17.92554 1.85995,63.15809 -0.71145,14.77698 -1.52019,34.92741 -1.7972,44.77874 -0.277,9.85132 -1.13759,32.88039 -1.91243,51.1757 -0.77484,18.29532 -1.91994,46.82096 -2.54467,63.39033 -0.95246,25.26232 -1.56517,31.3476 -3.79505,37.69201 -12.94994,36.8449 -67.20646,68.29832 -134.5175,77.98209 -16.8374,2.42232 -54.50519,3.4746 -69.16192,1.9321 z m 106.34114,-72.37076 c 13.51023,-3.21644 27.50695,-9.01314 27.50695,-11.39192 0,-2.91092 -9.22101,-1.72694 -30.22071,3.88033 -22.49466,6.00643 -28.76424,8.54758 -27.2267,11.03536 1.15758,1.87301 13.24977,0.44986 29.94046,-3.52377 z M 548.04613,374.5202 c 3.29869,-1.45218 5.43741,-3.24168 5.43741,-4.54955 0,-1.93464 -1.28033,-2.06507 -12.47788,-1.2712 -11.48166,0.81401 -13.65228,0.56811 -27.1871,-3.07988 -8.09006,-2.18049 -16.22737,-5.0643 -18.08292,-6.40848 -3.98462,-2.8865 -4.94233,-2.27611 -4.94233,3.14995 0,4.87418 4.5127,9.59521 12.79392,13.38454 5.19321,2.37629 7.38676,2.56258 22.38938,1.90136 12.19937,-0.53767 18.08126,-1.371 22.06952,-3.12674 z m -0.95955,-76.70406 c 0,-1.38628 -1.72718,-3.79744 -3.83817,-5.35818 -2.111,-1.56073 -3.83818,-3.27254 -3.83818,-3.80403 0,-0.53152 3.25094,-4.02153 7.22429,-7.75562 3.97338,-3.73407 8.32636,-9.25436 9.6733,-12.26729 3.14506,-7.03509 4.32915,-21.69673 2.04238,-25.28943 -0.91749,-1.44148 -2.81962,-4.54911 -4.22696,-6.90583 -1.40733,-2.35672 -4.24901,-6.26886 -6.31484,-8.69365 -3.90093,-4.57871 -3.71387,-6.88423 0.78903,-9.72458 2.38495,-1.50439 3.81446,-0.88515 11.28308,4.88766 8.69971,6.72437 13.91093,8.84051 21.74968,8.83199 11.78454,-0.0128 22.57896,-7.58676 28.04615,-19.67866 4.24978,-9.39932 3.03493,-24.07481 -1.83812,-22.20484 -1.20594,0.46276 -1.89958,-0.0404 -1.89958,-1.378 0,-3.46428 -4.80569,-11.80911 -8.45289,-14.678 -8.04999,-6.33213 -20.40498,-1.16569 -36.72431,15.35686 -9.06939,9.18232 -11.71511,11.20561 -13.12391,10.03641 -1.45376,-1.20651 -0.89175,-2.51194 3.19109,-7.4122 5.88763,-7.0664 10.04234,-14.62112 11.07857,-20.14472 0.83184,-4.43404 -3.83546,-17.10072 -6.34225,-17.21241 -0.79293,-0.0353 -3.09329,-3.54761 -5.1119,-7.80509 -4.24197,-8.94678 -8.72489,-11.64799 -19.37142,-11.6724 -11.91876,-0.0274 -26.89362,10.12431 -32.46814,22.01056 -2.7886,5.94599 -3.33975,8.92817 -3.32694,18.00145 0.0174,12.34148 2.55447,18.84016 9.70352,24.8557 3.74893,3.1545 3.94024,3.67753 2.3987,6.5579 -2.20348,4.11723 -3.62659,3.95814 -10.33437,-1.15524 -11.85141,-9.03444 -21.37273,-11.89339 -32.12563,-9.64631 -5.70412,1.19201 -7.89799,2.57149 -14.04599,8.83197 -9.45262,9.62556 -12.36896,18.22499 -10.17727,30.01007 2.66703,14.34131 11.30359,22.4482 23.86026,22.39695 10.23856,-0.0418 16.52071,-3.78949 30.43525,-18.15663 9.30174,-9.6043 12.89529,-12.55957 13.96791,-11.48695 1.07261,1.07262 0.0534,3.42684 -3.96168,9.1507 -7.21493,10.28559 -9.60112,17.59623 -8.76243,26.8456 0.64743,7.13986 3.73216,15.16067 6.52047,16.95432 0.75888,0.48817 4.94521,1.26941 9.30294,1.73609 9.39795,1.00643 14.75658,-0.42166 25.18645,-6.71221 4.09193,-2.46797 7.7042,-4.2229 8.02725,-3.89985 1.03873,1.03872 -7.62646,8.76847 -12.90835,11.51486 -5.22476,2.7167 -17.39335,3.58283 -23.42785,1.66756 -4.85655,-1.5414 -3.09628,1.63932 2.4822,4.48524 4.40605,2.2478 4.98944,2.96678 3.51832,4.33584 -5.22163,4.85936 -15.39539,4.92639 -19.67506,0.1296 -3.16129,-3.54326 -13.99972,-10.94622 -16.02599,-10.94622 -0.8204,0 -6.36194,2.6548 -12.31451,5.89954 -5.95259,3.24476 -11.11107,5.61135 -11.46333,5.2591 -0.35223,-0.35224 0.25541,-4.09767 1.35035,-8.32316 1.09494,-4.22548 1.99079,-10.03867 1.99079,-12.91818 l 0,-5.23547 -9.29183,-4.40936 c -15.21153,-7.2185 -18.86276,-13.11854 -18.84231,-30.44755 0.0102,-8.55544 0.61892,-11.89867 3.16135,-17.35979 3.20175,-6.87733 13.00822,-17.54181 19.84309,-21.57927 2.07354,-1.22488 4.1093,-3.11112 4.52396,-4.19166 0.41463,-1.08054 -0.53571,-6.42761 -2.1119,-11.88238 -1.57618,-5.45478 -2.61703,-10.12909 -2.31301,-10.38737 0.30403,-0.25828 5.32623,0.10533 11.16043,0.80801 13.16697,1.58584 14.64161,0.90578 23.30801,-10.74876 8.53136,-11.47295 17.76356,-19.43171 29.05438,-25.04679 8.63146,-4.29255 9.82764,-4.55061 18.28751,-3.94531 10.99333,0.78657 25.80306,7.5358 33.15197,15.10835 8.3979,8.65348 12.4507,7.95729 25.36412,-4.35708 5.22969,-4.98709 5.43742,-5.06471 5.43742,-2.03173 0,1.73441 -0.58559,5.1647 -1.30132,7.6229 -0.71573,2.45818 -1.56056,7.69847 -1.87739,11.6451 l -0.57607,7.17567 9.87359,3.80894 c 13.15433,5.07455 15.00047,8.35732 14.96941,26.61845 -0.0293,17.25959 -2.67173,23.19084 -15.6655,35.1638 -10.65616,9.819 -10.1757,7.97938 -6.61121,25.31285 2.2572,10.97641 1.67135,11.41514 -12.33396,9.23643 l -11.0497,-1.71891 -6.58497,7.42067 c -8.63668,9.73279 -15.89252,20.64675 -17.69537,26.61673 -1.54959,5.13133 -3.60261,6.42906 -3.60261,2.27724 z M 455.61,252.0868 c -4.90496,-1.17979 -5.08435,-2.92588 -0.30058,-2.92588 2.57897,0 7.44386,-0.93227 10.81086,-2.0717 5.40736,-1.8299 8.67131,-3.74851 22.11424,-12.9991 2.87674,-1.97961 2.78698,-1.67624 -0.89237,3.01587 -5.20966,6.64361 -12.55328,11.7314 -20.29649,14.06176 -6.28368,1.89112 -7.11617,1.95803 -11.43566,0.91905 z m 112.26671,-26.10692 c -5.99796,-1.73185 -5.11073,-2.70648 1.55394,-1.70705 7.97977,1.19665 17.71418,-1.45528 24.58037,-6.69636 3.18015,-2.42747 6.00985,-4.18583 6.28821,-3.90747 0.27836,0.27837 -1.53381,2.8893 -4.02704,5.80208 -6.33672,7.40305 -16.90703,9.82597 -28.39548,6.5088 z m -95.70992,-70.81671 c 3.00723,-2.36937 4.95645,-2.53371 4.23976,-0.35747 -0.28968,0.87959 -1.92091,1.7601 -3.62496,1.9567 -3.00035,0.34617 -3.01977,0.29563 -0.6148,-1.59923 z m 99.22826,-17.29658 c 0,-1.43759 22.96376,-13.29853 23.91173,-12.35056 0.33873,0.33873 -0.72882,1.30951 -2.37233,2.15728 -1.64352,0.84777 -5.98607,3.77306 -9.65012,6.50063 -6.33188,4.71351 -11.88928,6.43958 -11.88928,3.69265 z m -58.42801,-17.22271 c 3.78517,-2.86867 14.38127,-4.98181 17.0875,-3.40771 1.98961,1.15727 1.75726,1.35441 -1.63567,1.38779 -2.17508,0.0214 -6.78089,0.89626 -10.23513,1.94415 -7.66541,2.32538 -8.19521,2.33307 -5.2167,0.0757 z"
         id="path3030"
         inkscape:connector-curvature="0" />
      <path
         sodipodi:nodetypes="csccccsscssssssssccssssssssssscssssssccsssssccssssssscsssssssscsssssssssccsssss"
         style="fill:#808080"
         d="m 502.15629,714.82231 c -6.06452,-0.63824 -14.41256,-1.97857 -18.55119,-2.97852 l -7.52481,-1.81807 6.07711,-0.14173 6.07712,-0.14172 0.0734,-4.79772 c 0.0404,-2.63874 0.27777,-7.10063 0.5275,-9.91529 0.62896,-7.08888 2.14126,-25.59195 2.70764,-33.12806 0.25879,-3.44345 0.71371,-6.50398 1.01091,-6.8012 0.29722,-0.2972 6.17543,-1.0735 13.06271,-1.7251 6.88729,-0.6516 13.61616,-1.5319 14.95306,-1.95623 5.48405,-1.74056 -3.7286,-4.82941 -25.14772,-8.43159 -52.35082,-8.80414 -81.32224,-17.88167 -109.63902,-34.35292 -14.58402,-8.4832 -33.54684,-28.15431 -30.28498,-31.41616 0.46631,-0.46633 4.28988,2.267 8.49681,6.07405 8.44616,7.64333 28.14144,19.83403 44.91731,27.80227 19.25602,9.14626 41.39809,14.23282 70.41818,16.17675 l 13.38204,0.89641 0.15589,-4.3112 c 0.0857,-2.37115 0.5752,-11.21991 1.08769,-19.6639 0.5125,-8.44399 1.06222,-19.20357 1.22159,-23.91016 0.15938,-4.7066 0.96667,-9.37305 1.79399,-10.3699 0.85552,-1.03084 6.46853,-2.52403 13.01569,-3.46247 6.33131,-0.90749 11.51149,-2.09461 11.51149,-2.63805 0,-1.82102 -10.77229,-4.96266 -21.74968,-6.34307 -20.28079,-2.55032 -61.70222,-11.58937 -78.62127,-17.15685 -36.30126,-11.94551 -57.86273,-25.0788 -68.57205,-41.76783 -5.75647,-8.97067 -4.14471,-10.24607 3.90899,-3.09325 13.4443,11.94045 41.66501,27.61416 61.90976,34.38456 18.40033,6.15356 49.5977,11.02708 70.58877,11.02708 l 7.96069,0 0.94109,-10.55499 c 0.9745,-10.92986 1.3623,-17.06919 2.43805,-38.59793 0.40413,-8.08747 1.20823,-13.04503 2.21696,-13.66847 0.87055,-0.53804 5.9287,-1.34128 11.2403,-1.78497 11.79586,-0.98535 29.1008,-3.11434 33.00639,-4.0607 1.95746,-0.47432 2.87863,-1.64722 2.87863,-3.66525 0,-3.12133 -2.86605,-2.05636 -18.50073,-1.74726 -24.0923,-0.55657 -50.13978,-1.83052 -71.7462,-5.5274 -35.77598,-6.26821 -56.08996,-13.41556 -79.41362,-25.3291 -23.93572,-12.22616 -38.90352,-30.20269 -39.95609,-48.83063 -0.64066,-11.33804 2.56363,-19.63069 13.91152,-30.8696 19.19064,-19.00637 45.22724,-30.35701 82.47887,-39.28674 18.21678,-4.36681 50.75713,-9.26585 57.73995,-8.6929 l 4.95029,0.40618 -0.0102,7.94164 c -0.0102,7.51036 -0.26595,8.17583 -4.71807,12.25382 -5.26868,4.82592 -6.85253,9.19404 -5.55641,15.32406 0.9028,4.26981 0.96705,7.07363 0.38723,16.90003 -0.39271,6.65539 1.75798,9.44145 11.37243,14.73218 4.25016,2.33882 6.40978,4.51166 7.39624,7.44147 1.74555,5.18436 9.86092,10.41996 16.07701,10.37202 5.90927,-0.0456 18.41715,-6.19912 19.0008,-9.34789 0.35445,-1.91222 -0.0517,-2.22559 -1.9191,-1.48061 -3.76169,1.50077 -16.51848,2.4059 -20.3511,1.44395 -5.87089,-1.47349 -1.80528,-2.98454 9.66636,-3.59268 20.00348,-1.06041 35.25019,-11.34854 30.91587,-20.86133 -1.18267,-2.59567 -2.13314,-3.14406 -4.37883,-2.52643 -2.50874,0.68999 -2.61227,0.5801 -0.82595,-0.87662 2.98801,-2.43667 6.27373,-9.35018 6.27373,-13.20059 0,-4.29001 -1.87558,-7.88926 -6.84788,-13.1411 -3.60007,-3.80246 -4.02892,-5.13362 -4.47041,-13.87632 l -0.48834,-9.67038 10.06134,0.86206 c 58.12697,4.98029 101.11295,18.67069 130.89569,41.68831 12.58061,9.72292 17.77862,15.6715 22.43541,25.67498 3.74688,8.0488 4.03773,17.92554 1.85996,63.15809 -0.71145,14.77698 -1.52019,34.92741 -1.7972,44.77874 -0.277,9.85132 -1.13759,32.88039 -1.91244,51.1757 -0.77484,18.29532 -1.91993,46.82096 -2.54466,63.39033 -0.95246,25.26232 -1.56518,31.3476 -3.79505,37.69201 -12.94995,36.8449 -67.20647,68.29832 -134.5175,77.98209 -16.8374,2.42232 -54.50519,3.4746 -69.16192,1.9321 z m 106.34114,-72.37076 c 13.51023,-3.21644 27.50695,-9.01314 27.50695,-11.39192 0,-2.91092 -9.22101,-1.72694 -30.22071,3.88033 -22.49466,6.00643 -28.76424,8.54758 -27.2267,11.03536 1.15758,1.87301 13.24977,0.44986 29.94046,-3.52377 z"
         id="path3028"
         inkscape:connector-curvature="0" />
      <path
         sodipodi:nodetypes="scsssssssssccsscssssssssssssscsssssccsssssccsccccccs"
         style="fill:#333333"
         d="m 644.83604,660.48565 c 2.48912,-18.61597 1.58031,-25.10049 18.37561,-36.72135 13.85867,-9.54192 25.29018,-20.21162 21.65472,-20.21162 -1.21373,0 -8.67412,3.2448 -16.57864,7.21065 -22.77102,11.4247 -59.68991,22.65953 -92.63566,28.19007 -19.45235,3.26542 -71.43788,3.25731 -92.53512,-0.0145 -52.0457,-8.07121 -93.82097,-24.80449 -112.58655,-45.09705 -4.46295,-4.8261 -4.46508,-4.83419 -0.6397,-2.42653 38.48792,24.22406 63.62761,32.98927 110.01992,38.35956 21.91187,2.53647 63.78801,2.51526 83.42269,-0.0422 31.1832,-4.06177 62.48201,-12.84255 83.95825,-23.55426 11.61709,-5.79425 11.7463,-5.91054 12.15706,-10.94171 4.46407,-23.7319 13.25681,-56.59942 27.44286,-69.3015 18.88028,-16.11537 17.35888,-22.16293 -2.36172,-9.38783 -21.46684,13.90634 -43.21294,22.36783 -77.48333,30.14912 -29.12013,6.61189 -39.06049,7.57741 -77.87134,7.56371 -31.83838,-0.0116 -38.81541,-0.38749 -55.01388,-2.96684 -48.44644,-7.71429 -87.14712,-22.41108 -107.48925,-40.81965 -4.21084,-3.8106 -7.6561,-7.44418 -7.6561,-8.07461 0,-0.63044 3.88615,1.36118 8.6359,4.42581 27.73572,17.89567 56.26977,28.03379 96.2743,34.20619 25.49886,3.93427 81.51859,4.27333 106.82929,0.64659 32.3297,-4.63249 64.11478,-13.93783 87.7863,-25.70014 22.5314,-11.19578 44.38773,-29.80106 47.07416,-40.07204 1.46962,-5.61884 6.71717,-40.48729 6.33077,-42.06626 -0.47588,-1.94463 6.53277,-39.3471 7.18303,-38.69683 0.34763,0.34765 -1.98641,35.90227 -2.79715,55.11326 -0.81071,19.21098 -2.62274,66.88729 -4.02675,104.88525 -1.404,37.99797 -2.3732,73.45075 -2.7179,75.95478 -3.36485,24.44322 -44.76866,57.19719 -97.65488,75.12975 41.42594,-15.72558 31.06831,-32.01757 32.90311,-45.73986 z M 507.42092,432.1394 c -9.22581,-0.74384 -16.62761,-2.70226 -16.62761,-4.39947 0,-0.24525 2.29107,-5.95081 5.09127,-12.679 2.8002,-6.72819 5.45674,-14.51865 5.90345,-17.31212 0.75628,-4.72956 2.67477,-5.81339 -1.01937,-7.72371 -18.80906,-8.71413 -22.97506,-24.56133 -11.31994,-35.28695 1.15233,1.10276 1.01854,-0.63099 0.13811,2.4389 -1.45385,5.06924 -0.47159,10.17386 2.19283,12.41928 1.06244,0.89538 3.81372,3.48295 7.70908,5.60518 5.30112,2.88812 7.43488,4.90538 8.48376,8.02055 1.75373,5.20867 9.85396,10.44389 16.08502,10.39584 5.90927,-0.0456 18.41715,-6.19912 19.00079,-9.34789 0.35446,-1.91222 -0.0517,-2.22559 -1.91909,-1.48061 -3.76169,1.50077 -16.51848,2.4059 -20.35111,1.44395 -5.87088,-1.47349 -1.80527,-2.98454 9.66637,-3.59268 15.817,8.27116 40.8819,-27.31535 26.53704,-23.34071 -2.54896,0.74285 -1.47602,-0.51108 1.8339,-3.45969 13.94995,11.27754 10.06208,32.71032 -22.23772,40.00369 -0.4711,2.00035 -5.72662,21.04958 -6.38133,23.52893 -2.93516,11.20004 -4.72801,16.24963 -7.95712,15.83212 -0.80163,-0.10364 -8.8447,-0.58318 -14.82833,-1.06561 z"
         id="path3026"
         inkscape:connector-curvature="0" />
      <path
         sodipodi:nodetypes="cccssssssccsssscsssssssc"
         inkscape:connector-curvature="0"
         id="path3814"
         d="m 500.86377,390.01021 c -22.50328,-10.95064 -20.75791,-25.36756 -11.51403,-35.08522 l 0.9776,0.10862 c 0,0 -2.17246,2.38971 -1.30348,7.49498 0.86899,5.10528 0.76037,5.43116 4.01905,8.36397 3.2587,2.93282 10.16182,6.30596 11.29679,7.49498 2.28108,2.38971 3.52489,4.00346 4.01905,15.85896 0.82732,19.84852 8.53218,22.70356 13.252,22.81082 4.77941,0.10862 9.12433,-2.60696 11.83991,-12.27439 2.71557,-9.66745 3.15006,-11.18817 3.15006,-11.18817 17.49104,-2.60288 43.32095,-20.10103 22.2677,-39.97324 0,0 -2.22172,2.38968 -0.76035,2.38969 0.76036,10e-6 2.77428,-0.40417 3.58456,1.8466 0.97759,2.71558 5.21389,10.21055 -6.19151,18.68315 -4.03937,3.00067 -2.95758,8.49398 -6.73463,10.53642 -1.89763,1.02615 -8.60265,4.41458 -12.05715,6.40876 -1.49981,6.13285 -9.77606,36.38869 -10.10193,37.47491 -0.32588,1.08624 -1.19486,2.06384 -3.25869,2.06384 -2.06384,0 -14.44686,-0.86899 -16.94518,-0.9776 -2.49833,-0.10863 -11.40541,-1.84659 -12.81751,-2.06385 -1.4121,-0.21724 -3.25869,-1.30347 -2.8242,-2.49832 0.43449,-1.19485 4.77941,-11.73128 5.97427,-14.88134 1.19485,-3.15007 5.64839,-16.83657 6.08288,-18.79177 0.43449,-1.95522 -1.95521,-3.8018 -1.95521,-3.8018 z"
         style="fill:#000000;stroke:none" />
      <path
         sodipodi:nodetypes="sssccsssssssssssscssssssssscsssscsssssscssssssss"
         inkscape:connector-curvature="0"
         id="path2989"
         d="m 345.92729,625.82108 c -5.90247,-77.51835 -8.80016,-170.65568 -12.60026,-232.88762 -2.06088,-33.7497 47.47496,-65.1392 111.5476,-80.13473 22.94932,-5.37105 47.69786,-7.95929 53.08813,-9.2051 -3.53606,-6.38283 -15.1619,-15.78985 -18.64648,-17.97965 0,0 -10.51726,5.45322 -22.59358,10.8623 -9.45997,4.2372 -10.00126,-3.84791 -9.55882,-9.55882 0.33728,-4.35355 2.60695,-16.51069 2.60695,-18.24866 0,-1.73797 -0.43449,-2.76989 -2.38971,-3.53025 -1.9552,-0.76035 -14.6609,-7.89307 -20.8556,-16.565 -5.16891,-7.23593 -4.23629,-16.34775 -4.18198,-24.87465 0.0543,-8.52691 3.38115,-21.94477 10.15625,-28.67646 9.79387,-9.73114 9.76436,-8.97429 14.60978,-13.36063 0.53247,-0.48202 1.05334,-0.93286 0.81467,-2.17246 -0.65182,-3.38544 -1.03191,-5.59408 -1.73797,-7.87516 -0.70604,-2.28109 -2.82419,-11.56834 -2.93281,-14.93566 -0.10863,-3.36731 -0.65175,-7.1148 5.32252,-6.78893 5.97426,0.32586 21.50735,3.53024 21.50735,3.53024 0,0 21.12716,-21.34441 24.44016,-24.27723 3.313,-2.93281 16.23913,-13.90374 29.05665,-14.50117 12.8175,-0.59742 19.60643,2.76989 25.41776,5.81134 5.81134,3.04144 19.33489,11.56834 21.7246,12.32871 2.3897,0.76035 2.60695,0.65173 3.47593,0.10861 0.86898,-0.54311 15.80463,-8.79845 19.00902,-9.55882 3.20438,-0.76036 4.34491,-1.57503 7.38636,0.81467 3.04144,2.38971 3.04144,6.51738 2.60695,8.41828 -0.43449,1.90091 -3.53025,17.21674 -3.63887,19.17196 -0.10862,1.95521 -0.21725,3.74749 -0.21725,3.74749 0,0 12.00284,7.44067 14.6641,9.939 2.66127,2.49833 8.13499,9.89466 9.12433,17.10812 0.99816,7.27773 0.39336,19.93231 -0.70605,24.38585 -1.08283,4.3863 -3.05445,8.6117 -5.59409,12.22008 -5.92194,8.41407 -19.00901,19.60645 -19.00901,19.60645 0,0 3.53025,16.07619 3.80181,18.84608 0.27155,2.76988 -0.21725,6.46307 -1.52073,7.54929 -1.30347,1.08624 -3.69317,1.95522 -8.90708,1.57504 -5.2139,-0.38019 -7.16912,-0.43449 -11.73127,-1.73796 -4.17906,-1.19402 -3.58457,-0.38019 -6.02858,2.33538 -2.44402,2.71558 -15.47878,17.92279 -18.35728,24.87466 -2.87851,6.95187 -3.47594,9.71243 -3.52864,11.26883 2.0979,0.6347 4.83211,0.84263 6.57008,1.1685 1.73797,0.32587 17.13049,2.36093 25.36346,3.09575 63.19558,5.6404 137.6764,43.31983 135.94163,79.78357 -0.81302,17.08913 -9.32808,223.29419 -9.61313,239.18774 -0.47177,26.30485 -44.26222,63.49664 -102.10558,80.86979 -31.45105,9.44627 -90.92664,15.27565 -143.54523,4.29061 -23.56464,-4.91953 -51.75884,-14.98997 -72.50582,-27.80748 -20.74699,-12.81751 -43.77312,-32.51823 -45.73027,-58.2219 z"
         style="fill:none;stroke:#000000;stroke-width:0.93960053px;stroke-linecap:butt;stroke-linejoin:miter;stroke-opacity:1" />
      <path
         sodipodi:nodetypes="sssssssssssssssssssssssssssssssssssssss"
         inkscape:connector-curvature="0"
         id="path2991"
         d="m 499.38599,217.27226 c -1.67184,1.11369 -2.91871,2.45786 -5.99104,5.53017 -3.07231,3.07233 -14.10882,17.18633 -20.58454,19.0484 -6.24168,1.79478 -22.47664,10.89928 -27.95813,-2.76509 -4.7176,-11.76014 -1.14698,-21.81835 3.07232,-27.65089 5.22295,-7.21996 13.05736,-13.67183 20.73817,-13.67183 7.6808,0 19.50924,3.22594 24.11772,7.21996 4.60849,3.99401 6.14464,5.53017 9.21696,6.45187 3.07233,0.9217 3.99402,0.30724 6.45188,-1.53616 2.45786,-1.8434 3.07232,-3.99402 3.99402,-5.83742 0.92169,-1.84339 0,-2.45785 -1.53616,-3.99401 -1.53616,-1.53616 -7.06634,-6.45187 -9.83143,-11.36759 -2.76509,-4.91571 -4.60848,-15.05437 -3.68678,-20.27732 0.92169,-5.22294 5.80192,-16.59166 13.67182,-23.04241 4.68529,-3.8404 10.82993,-5.99102 16.41772,-6.87431 5.58779,-0.88329 13.23019,-0.34565 15.84166,1.9586 5.22294,4.60848 7.83441,13.21098 7.83441,21.50625 0,8.29526 -10.13865,24.27134 -11.67482,25.19303 -1.53616,0.9217 -2.45785,4.30125 -2.15062,6.14465 0.30723,1.84339 3.68679,5.22294 6.7591,7.06633 3.07233,1.84339 5.22295,3.07232 6.75911,2.45786 1.53616,-0.61447 7.06634,-7.98804 9.83143,-10.75312 2.76508,-2.7651 12.28928,-12.28929 19.35562,-15.36161 7.06634,-3.07232 13.82544,-4.14763 18.43393,1.22892 4.38967,5.12129 6.75911,16.28331 2.45785,24.57857 -4.30124,8.29528 -11.36759,17.51224 -19.04839,18.74117 -7.6808,1.22892 -15.3616,1.53615 -24.8858,-5.53018 -9.52419,-7.06634 -12.28928,-7.98804 -13.21098,-7.98804 -0.92169,0 -3.37955,3.07233 -4.91572,4.60849 -1.53615,1.53616 -3.07231,5.53018 -2.15062,7.37357 0.9217,1.84339 6.14465,6.14464 8.90973,10.44589 2.7651,4.30125 7.98804,11.67482 4.60848,22.12071 -3.37954,10.4459 -13.51821,23.96411 -23.04241,26.11473 -9.52419,2.15063 -16.89776,2.15063 -20.58455,0 -3.68677,-2.15062 -7.06633,-6.14464 -7.6808,-15.97607 -0.61446,-9.83143 0.9217,-9.5242 4.30126,-17.51223 3.37954,-7.98803 7.06633,-11.06036 8.29526,-13.21098 1.22893,-2.15063 1.84339,-3.37956 -0.61446,-6.14464 -2.45786,-2.7651 -10.59421,-8.91279 -11.5212,-8.29527 z"
         style="fill:none;stroke:#000000;stroke-width:0.93960053px;stroke-linecap:butt;stroke-linejoin:miter;stroke-opacity:1" />
      <path
         sodipodi:nodetypes="cscssc"
         inkscape:connector-curvature="0"
         id="path2993"
         d="m 337.01381,461.5218 c 6.62093,52.15853 94.50455,84.19166 185.5682,84.18159 99.03615,-0.011 195.03643,-38.97969 194.35067,-98.05976 -1.08409,30.41657 -12.76449,53.674 -48.31957,73.61631 -35.55507,19.94231 -89.77091,32.2246 -160.28418,27.65612 -87.94151,-5.69763 -164.72039,-35.06391 -171.31512,-87.39426 z"
         style="fill:#000000;stroke:#000000;stroke-width:0.93960053px;stroke-linecap:butt;stroke-linejoin:miter;stroke-opacity:1" />
      <path
         style="fill:#000000;stroke:#000000;stroke-width:0.93960053px;stroke-linecap:butt;stroke-linejoin:miter;stroke-opacity:1"
         d="m 340.7006,543.24555 c 6.62093,52.15853 84.67999,87.97749 175.73676,89.0973 99.03615,1.21794 195.14185,-42.58288 197.06304,-99.056 -0.45316,33.38741 -21.93873,57.58972 -62.83113,77.79884 -40.89241,20.20912 -91.96835,24.56271 -129.74007,25.16323 -71.55529,1.13762 -177.27266,-30.41442 -180.2286,-93.00337 z"
         id="path2995"
         inkscape:connector-curvature="0"
         sodipodi:nodetypes="cscssc" />
      <path
         sodipodi:nodetypes="cssscsccccsscssssc"
         inkscape:connector-curvature="0"
         id="path2997"
         d="m 496.07006,300.92938 c 3.10679,4.48229 4.84117,7.01362 3.61224,20.61278 -0.78211,8.65457 -10.89583,8.48429 -10.5886,18.00848 0.30723,9.5242 2.45787,11.36759 2.15063,14.13268 -0.30723,2.76509 -3.37955,6.14464 -3.37955,6.14464 0,0 -3.37955,14.13268 0.92169,15.66884 4.30125,1.53616 15.36161,13.21098 15.36161,13.21098 l 4.91572,27.65089 19.04839,2.15063 c 2.05543,-2.98428 4.73685,-11.60254 7.95076,-25.01306 0,0 17.24227,-3.86676 23.69415,-13.39095 6.45187,-9.52421 6.45187,-11.06036 5.22294,-15.66885 -1.22893,-4.60848 -6.45188,-10.44589 -6.45188,-10.44589 0,0 3.37956,-5.22294 3.68679,-9.21696 0.30723,-3.99402 -2.76509,-12.28929 -7.06634,-15.36161 -4.30125,-3.07232 -3.37956,-3.99401 -3.68679,-7.37357 -0.30723,-3.37955 -0.82931,-9.8263 -0.39721,-14.57621 0.35994,-3.95675 1.2598,-7.47899 1.2598,-7.47899"
         style="fill:none;stroke:#000000;stroke-width:0.93960053px;stroke-linecap:butt;stroke-linejoin:miter;stroke-opacity:1" />
      <path
         style="fill:none;stroke:#000000;stroke-width:0.93960053px;stroke-linecap:butt;stroke-linejoin:miter;stroke-opacity:1"
         d="m 333.23065,393.33746 c 6.62093,52.15854 94.50454,84.19167 185.5682,84.1816 99.03615,-0.011 198.57412,-32.6769 200.49531,-89.15003"
         id="path2999"
         inkscape:connector-curvature="0"
         sodipodi:nodetypes="csc" />
      <path
         sodipodi:nodetypes="csssc"
         inkscape:connector-curvature="0"
         id="path3001"
         d="m 551.85074,305.75513 c 74.79442,4.60848 163.75471,36.68535 163.75471,80.80204 0,44.1167 -84.04458,79.88036 -187.71881,79.88036 -103.67424,0 -187.71882,-35.76366 -187.71882,-79.88036 0,-44.11669 81.58671,-73.42847 158.53177,-79.26588"
         style="fill:none;stroke:#000000;stroke-width:0.93960053" />
      <path
         style="fill:none;stroke:#000000;stroke-width:0.93960053px;stroke-linecap:butt;stroke-linejoin:miter;stroke-opacity:1"
         d="m 339.40352,471.77227 c 5.1002,52.59303 94.87992,83.15851 185.94357,83.14808 95.88362,-0.011 184.95556,-30.78533 188.70868,-88.77917"
         id="path3004"
         inkscape:connector-curvature="0"
         sodipodi:nodetypes="csc" />
      <path
         sodipodi:nodetypes="csc"
         inkscape:connector-curvature="0"
         id="path3006"
         d="m 337.62827,479.18763 c 6.62094,52.15853 89.58884,90.79716 180.65249,90.78709 99.03615,-0.011 195.50179,-37.43901 197.42299,-93.91213"
         style="fill:none;stroke:#000000;stroke-width:0.93960053px;stroke-linecap:butt;stroke-linejoin:miter;stroke-opacity:1" />
      <path
         sodipodi:nodetypes="csc"
         inkscape:connector-curvature="0"
         id="path3008"
         d="m 343.74204,556.15569 c 4.23122,47.81362 81.63855,84.28432 172.69532,85.40412 99.03615,1.21794 192.31766,-36.28274 194.23885,-92.75586"
         style="fill:none;stroke:#000000;stroke-width:0.93960053px;stroke-linecap:butt;stroke-linejoin:miter;stroke-opacity:1" />
      <path
         style="fill:none;stroke:#000000;stroke-width:0.93960053px;stroke-linecap:butt;stroke-linejoin:miter;stroke-opacity:1"
         d="m 341.78682,564.02551 c 6.62093,52.15853 83.59377,89.93271 174.65054,91.05251 99.03615,1.21794 194.05562,-39.75868 195.97682,-96.2318"
         id="path3010"
         inkscape:connector-curvature="0"
         sodipodi:nodetypes="csc" />
    </g>
  </g>
</svg>
