<?xml version="1.0" encoding="UTF-8" standalone="no"?>
<!-- Created with Inkscape (http://www.inkscape.org/) -->

<svg
   xmlns:dc="http://purl.org/dc/elements/1.1/"
   xmlns:cc="http://creativecommons.org/ns#"
   xmlns:rdf="http://www.w3.org/1999/02/22-rdf-syntax-ns#"
   xmlns:svg="http://www.w3.org/2000/svg"
   xmlns="http://www.w3.org/2000/svg"
   xmlns:sodipodi="http://sodipodi.sourceforge.net/DTD/sodipodi-0.dtd"
   xmlns:inkscape="http://www.inkscape.org/namespaces/inkscape"
   width="20"
   height="20"
   id="svg2"
   version="1.1"
   inkscape:version="0.48.4 r9939"
   sodipodi:docname="Trash-Icon.svg">
  <defs
     id="defs4" />
  <sodipodi:namedview
     id="base"
     pagecolor="#ffffff"
     bordercolor="#666666"
     borderopacity="1.0"
     inkscape:pageopacity="0.0"
     inkscape:pageshadow="2"
     inkscape:zoom="63.356767"
     inkscape:cx="18.929899"
     inkscape:cy="16.953616"
     inkscape:document-units="px"
     inkscape:current-layer="layer1"
     showgrid="false"
     inkscape:window-width="1871"
     inkscape:window-height="1056"
     inkscape:window-x="49"
     inkscape:window-y="24"
     inkscape:window-maximized="1" />
  <metadata
     id="metadata7">
    <rdf:RDF>
      <cc:Work
         rdf:about="">
        <dc:format>image/svg+xml</dc:format>
        <dc:type
           rdf:resource="http://purl.org/dc/dcmitype/StillImage" />
        <dc:title></dc:title>
      </cc:Work>
    </rdf:RDF>
  </metadata>
  <g
     inkscape:label="Ebene 1"
     inkscape:groupmode="layer"
     id="layer1"
     transform="translate(0,-1032.3622)">
    <path
       sodipodi:type="arc"
       style="fill:#d7d7d7;fill-opacity:1;stroke:none"
       id="path2985"
       sodipodi:cx="414.28571"
       sodipodi:cy="433.79074"
       sodipodi:rx="241.42857"
       sodipodi:ry="241.42857"
       d="m 655.71428,433.79074 a 241.42857,241.42857 0 1 1 -482.85715,0 241.42857,241.42857 0 1 1 482.85715,0 z"
       transform="matrix(0.04135363,0,0,0.04135363,-7.1402338,1024.4233)" />
    <path
       sodipodi:type="arc"
       style="fill:#d7d7d7;fill-opacity:1;stroke:#393939;stroke-width:11.7196207;stroke-linecap:round;stroke-linejoin:miter;stroke-miterlimit:4;stroke-opacity:1;stroke-dasharray:none;stroke-dashoffset:0"
       id="path3757"
       sodipodi:cx="377.85715"
       sodipodi:cy="302.36218"
       sodipodi:rx="135"
       sodipodi:ry="41.42857"
       d="m 512.85715,302.36218 a 135,41.42857 0 1 1 -270,0 135,41.42857 0 1 1 270,0 z"
       transform="matrix(0.05292872,0,0,0.05292872,-10.066585,1021.8195)" />
    <path
       style="fill:none;stroke:#393939;stroke-width:0.62030423;stroke-linecap:round;stroke-linejoin:miter;stroke-miterlimit:4;stroke-opacity:1;stroke-dasharray:none;stroke-dashoffset:0"
       d="m 17.081174,1037.9314 -2.012107,10.0824 c -0.250925,1.2573 -2.299538,1.5762 -5.1361632,1.5762 -2.8366241,0 -4.8703175,-0.3808 -5.1361626,-1.5762 l -2.041644,-10.1415"
       id="path3759"
       inkscape:connector-curvature="0"
       sodipodi:nodetypes="csccc" />
    <path
       style="fill:none;stroke:#393939;stroke-width:0.41353625;stroke-linecap:butt;stroke-linejoin:miter;stroke-miterlimit:4;stroke-opacity:1;stroke-dasharray:none"
       d="m 2.7846356,1038.2562 c 0.3839975,1.5951 5.1527263,4.0542 7.2368834,4.4309 2.45168,0.4431 5.848585,1.1224 6.173505,-0.325"
       id="path3762"
       inkscape:connector-curvature="0"
       sodipodi:nodetypes="csc" />
    <path
       sodipodi:nodetypes="csc"
       inkscape:connector-curvature="0"
       id="path3764"
       d="m 3.1675437,1040.0714 c 0.3637608,1.511 4.8811728,3.8404 6.8554933,4.1971 2.322473,0.4197 5.540357,1.0632 5.848155,-0.3077"
       style="fill:none;stroke:#393939;stroke-width:0.41353625;stroke-linecap:butt;stroke-linejoin:miter;stroke-miterlimit:4;stroke-opacity:1;stroke-dasharray:none" />
    <path
       style="fill:none;stroke:#393939;stroke-width:0.41353625;stroke-linecap:butt;stroke-linejoin:miter;stroke-miterlimit:4;stroke-opacity:1;stroke-dasharray:none"
       d="m 3.5504516,1041.9455 c 0.3435243,1.4268 4.6096195,3.6267 6.4741034,3.9636 2.193267,0.3964 5.232132,1.0043 5.522806,-0.2905"
       id="path3766"
       inkscape:connector-curvature="0"
       sodipodi:nodetypes="csc" />
    <path
       sodipodi:nodetypes="csc"
       inkscape:connector-curvature="0"
       id="path3768"
       d="m 3.9333143,1043.884 c 0.3224442,1.3393 4.3267513,3.4042 6.0768217,3.7206 2.058679,0.3719 4.911064,0.9423 5.1839,-0.2728"
       style="fill:none;stroke:#393939;stroke-width:0.41353625;stroke-linecap:butt;stroke-linejoin:miter;stroke-miterlimit:4;stroke-opacity:1;stroke-dasharray:none" />
    <path
       style="fill:none;stroke:#393939;stroke-width:0.41353625;stroke-linecap:butt;stroke-linejoin:miter;stroke-miterlimit:4;stroke-opacity:1;stroke-dasharray:none"
       d="m 4.2868204,1045.6827 c 0.3047369,1.2657 3.5574528,3.1876 6.6587926,3.8705"
       id="path3770"
       inkscape:connector-curvature="0"
       sodipodi:nodetypes="cc" />
    <path
       sodipodi:nodetypes="cc"
       inkscape:connector-curvature="0"
       id="path3772"
       d="m 4.6111516,1047.1124 c 0.1468866,0.6102 0.9847085,1.5334 2.6644972,2.2809"
       style="fill:none;stroke:#393939;stroke-width:0.41353625;stroke-linecap:butt;stroke-linejoin:miter;stroke-miterlimit:4;stroke-opacity:1;stroke-dasharray:none" />
    <path
       sodipodi:nodetypes="csc"
       inkscape:connector-curvature="0"
       id="path3774"
       d="m 6.4290279,1039.7254 c 1.5666083,0.8992 2.5575356,1.2847 3.6453801,1.4814 2.55935,0.4625 6.105438,1.1715 6.444629,-0.3392"
       style="fill:none;stroke:#393939;stroke-width:0.41353625;stroke-linecap:butt;stroke-linejoin:miter;stroke-miterlimit:4;stroke-opacity:1;stroke-dasharray:none" />
    <path
       style="fill:none;stroke:#393939;stroke-width:0.41353625;stroke-linecap:butt;stroke-linejoin:miter;stroke-miterlimit:4;stroke-opacity:1;stroke-dasharray:none"
       d="m 11.98354,1039.9457 c 1.966106,0.3894 4.479547,0.8567 4.830155,-0.7051"
       id="path3776"
       inkscape:connector-curvature="0"
       sodipodi:nodetypes="cc" />
    <path
       sodipodi:nodetypes="csc"
       inkscape:connector-curvature="0"
       id="path3778"
       d="m 17.051636,1038.2562 c -0.383996,1.5951 -5.152726,4.0542 -7.2368844,4.4309 -2.4516785,0.4431 -5.8485832,1.1224 -6.1735047,-0.325"
       style="fill:none;stroke:#393939;stroke-width:0.41353625;stroke-linecap:butt;stroke-linejoin:miter;stroke-miterlimit:4;stroke-opacity:1;stroke-dasharray:none" />
    <path
       style="fill:none;stroke:#393939;stroke-width:0.41353625;stroke-linecap:butt;stroke-linejoin:miter;stroke-miterlimit:4;stroke-opacity:1;stroke-dasharray:none"
       d="m 16.668728,1040.0714 c -0.363761,1.511 -4.881173,3.8404 -6.8554936,4.1971 -2.3224736,0.4197 -5.540358,1.0632 -5.8481555,-0.3077"
       id="path3780"
       inkscape:connector-curvature="0"
       sodipodi:nodetypes="csc" />
    <path
       sodipodi:nodetypes="csc"
       inkscape:connector-curvature="0"
       id="path3782"
       d="m 16.28582,1041.9455 c -0.343525,1.4268 -4.609619,3.6267 -6.4741027,3.9636 -2.1932684,0.3964 -5.2321331,1.0043 -5.5228066,-0.2905"
       style="fill:none;stroke:#393939;stroke-width:0.41353625;stroke-linecap:butt;stroke-linejoin:miter;stroke-miterlimit:4;stroke-opacity:1;stroke-dasharray:none" />
    <path
       style="fill:none;stroke:#393939;stroke-width:0.41353625;stroke-linecap:butt;stroke-linejoin:miter;stroke-miterlimit:4;stroke-opacity:1;stroke-dasharray:none"
       d="m 15.902956,1043.884 c -0.322444,1.3393 -4.32675,3.4042 -6.0768202,3.7206 -2.0586785,0.3719 -4.9110647,0.9423 -5.1839005,-0.2728"
       id="path3784"
       inkscape:connector-curvature="0"
       sodipodi:nodetypes="csc" />
    <path
       sodipodi:nodetypes="cc"
       inkscape:connector-curvature="0"
       id="path3786"
       d="m 15.54945,1045.6827 c -0.304735,1.2657 -3.557452,3.1876 -6.6587901,3.8705"
       style="fill:none;stroke:#393939;stroke-width:0.41353625;stroke-linecap:butt;stroke-linejoin:miter;stroke-miterlimit:4;stroke-opacity:1;stroke-dasharray:none" />
    <path
       style="fill:none;stroke:#393939;stroke-width:0.41353625;stroke-linecap:butt;stroke-linejoin:miter;stroke-miterlimit:4;stroke-opacity:1;stroke-dasharray:none"
       d="m 15.225121,1047.1124 c -0.14689,0.6102 -0.98471,1.5334 -2.664499,2.2809"
       id="path3788"
       inkscape:connector-curvature="0"
       sodipodi:nodetypes="cc" />
    <path
       style="fill:none;stroke:#393939;stroke-width:0.41353625;stroke-linecap:butt;stroke-linejoin:miter;stroke-miterlimit:4;stroke-opacity:1;stroke-dasharray:none"
       d="m 13.407245,1039.7254 c -1.56661,0.8992 -2.557537,1.2847 -3.6453814,1.4814 -2.5593507,0.4625 -6.1054387,1.1715 -6.4446303,-0.3392"
       id="path3790"
       inkscape:connector-curvature="0"
       sodipodi:nodetypes="csc" />
    <path
       sodipodi:nodetypes="cc"
       inkscape:connector-curvature="0"
       id="path3792"
       d="m 7.852732,1039.9457 c -1.9661066,0.3894 -4.4795475,0.8567 -4.8301552,-0.7051"
       style="fill:none;stroke:#393939;stroke-width:0.41353625;stroke-linecap:butt;stroke-linejoin:miter;stroke-miterlimit:4;stroke-opacity:1;stroke-dasharray:none" />
  </g>
</svg>
